<?xml version="1.0" encoding="utf-8"?>
<!-- Generator: Adobe Illustrator 17.0.0, SVG Export Plug-In . SVG Version: 6.00 Build 0)  -->
<!DOCTYPE svg PUBLIC "-//W3C//DTD SVG 1.1//EN" "http://www.w3.org/Graphics/SVG/1.1/DTD/svg11.dtd">
<svg version="1.1" id="logo" xmlns="http://www.w3.org/2000/svg" xmlns:xlink="http://www.w3.org/1999/xlink" x="0px" y="0px"
	 width="193px" height="52px" viewBox="0 0 193 52" enable-background="new 0 0 193 52" xml:space="preserve">
<g id="red">
	<g>
		<path fill="#EB1C23" d="M181.898,5.354c0.239-0.253,0.573-0.363,0.888-0.498c-0.623,2.982-1.631,6.057-0.851,9.113
			c0.341-0.01,0.685-0.014,1.033-0.014c-0.01,1.104-0.971,1.82-1.225,2.839c0.211,0.322,0.595,0.465,0.898,0.689
			c-0.54,1.18-1.394,2.249-1.6,3.56c-0.126,0.645,0.143,1.263,0.396,1.839c1.064-0.017,2.019-0.505,2.847-1.14
			c1.126-0.857,2.595-0.944,3.841-1.545c1.438-0.673,2.863-1.5,4.486-1.597c-0.996,3.365-4.171,5.353-5.704,8.408
			c0.007,0.315,0.164,0.606,0.247,0.91c-1.536,0.436-3.311,0.774-4.261,2.202c0.903,1.896,3.249,2.162,4.6,3.604
			c1.261,1.341,2.616,2.756,3.083,4.596c-2.444-0.623-4.825-2.389-7.443-1.463c0.109,0.772,0.758,1.294,0.953,2.033
			c-1.396-0.09-2.733-1.11-4.133-0.469c-0.735-0.626-1.455-1.386-2.479-1.463c-0.123,0.44-0.253,0.882-0.479,1.282
			c-1.341-1.394-2.389-3.154-4.145-4.086c-1.017-0.564-2.507-0.612-3.23,0.438c-0.91,1.289-1.457,2.789-2.251,4.15
			c-1.538,2.751-2.749,5.671-4.341,8.391c-0.357-0.22-0.708-0.444-1.057-0.67c1.685-3.448,3.565-6.797,5.289-10.226
			c0.566-1.154,1.432-2.247,1.49-3.571c-0.121-1.007-1.276-1.313-2.11-1.49c-2.469-0.386-4.982-0.318-7.47-0.278
			c-0.855,0.017-1.706-0.116-2.498-0.436c0.993-0.645,2.166-1.081,2.882-2.079c-0.384-1.474-2.079-1.704-3.015-2.697
			c0.417-0.185,1.38-0.386,0.934-1.031c-1.235-2.666-3.482-4.675-4.927-7.214c-0.195-0.303-0.214-0.673-0.274-1.014
			c3.427,1.045,6.567,2.858,10.032,3.797c0.299-2.05-0.291-4.065-0.606-6.071c0.33-0.097,0.664-0.195,0.998-0.294
			c0.685-2.465,1.448-4.908,2.23-7.345c2.785,3.239,3.766,7.503,5.592,11.271c0.332-0.322,0.706-0.635,0.865-1.088
			c0.778-1.981,0.102-4.366,1.422-6.159c0.417,0.529,0.512,1.349,1.145,1.673c1.052-0.069,1.453-1.171,1.941-1.929
			c0.296-0.562,1.04-0.514,1.543-0.797C179.315,8.595,180.414,6.73,181.898,5.354z M169.503,19.646
			c-0.853,2.896-1.761,5.773-2.635,8.659c-0.126,0.543-0.538,0.927-0.965,1.245c1.193-0.054,2.389-0.019,3.583-0.031
			c0.614-2.552,1.223-5.109,1.846-7.659c0.095,2.552,0.176,5.107,0.266,7.662c1.391,0,2.782,0,4.175,0
			c0.778-2.922,1.527-5.854,2.311-8.773c0.106-0.538,0.61-0.82,1.005-1.133c-1.193,0.023-2.382,0.007-3.571,0.012
			c-0.517,2.37-1.021,4.742-1.54,7.112c-0.121-2.37-0.222-4.742-0.334-7.112C172.262,19.634,170.882,19.607,169.503,19.646z"/>
	</g>
	<g>
		<path fill="#EB1C23" d="M10.434,19.988c1.507-0.984,3.358-1.197,5.119-1.178c9.269-0.014,18.54,0.038,27.808-0.027
			c-1.741,0.474-2.747,2.143-3.361,3.721c-0.851,2.15-1.666,4.313-2.55,6.451c-0.434,0.977-0.907,2.054-1.886,2.598
			c-1.118,0.583-2.422,0.538-3.65,0.573c-5.806,0.007-11.61,0-17.417,0.004c1.189-3.062,2.391-6.117,3.579-9.179
			c-0.849,0.027-1.822-0.118-2.529,0.467c-0.701,0.571-0.981,1.471-1.305,2.28c-1.723,4.436-3.461,8.866-5.185,13.3
			c-2.816,0.029-5.631-0.043-8.447,0.04c0.981-0.457,1.56-1.413,1.938-2.382c1.671-4.242,3.301-8.499,4.988-12.731
			C8.137,22.398,9.009,20.883,10.434,19.988z M25.523,22.974c-0.687,1.723-1.365,3.446-2.048,5.169
			c1.944-0.014,3.887,0.033,5.828-0.019c0.606,0.007,1.199-0.334,1.415-0.915c0.44-1.093,0.91-2.181,1.223-3.313
			c0.197-0.597-0.45-0.94-0.95-0.905C29.167,22.948,27.345,22.991,25.523,22.974z"/>
	</g>
	<path fill="#EB1C23" d="M84.381,18.812c2.986-0.017,5.972,0.033,8.956-0.027c-1.46,0.54-2.294,1.957-2.828,3.337
		c-0.794,2.019-1.581,4.044-2.372,6.065c1.718-0.019,3.438,0.043,5.154-0.029c1.185-0.062,1.911-1.156,2.306-2.154
		c0.953-2.394,1.877-4.797,2.82-7.192c2.917-0.014,5.837,0.027,8.754-0.021c-0.905,0.396-1.64,1.114-2.046,2.017
		c-1.162,2.598-1.981,5.339-3.223,7.904c-0.865,1.784-2.543,3.332-4.614,3.407c-3.55,0.027-7.1,0-10.653,0.01
		c-0.78,1.751-1.214,3.697-2.391,5.242c-0.986,1.28-2.699,1.567-4.214,1.597c-5.062,0.064-10.124,0.019-15.184,0.038
		c-1.095,0.007-2.289-0.09-3.171-0.808c-0.728-0.583-1.029-1.552-0.979-2.457c0.052-1.171,0.602-2.228,1-3.306
		c2.143,0.004,4.283,0.007,6.424,0c-0.187,0.533-0.474,1.062-0.465,1.643c0.102,0.552,0.772,0.571,1.216,0.593
		c2.521,0.012,5.046,0.014,7.567-0.002c0.882,0.017,1.911-0.299,2.223-1.218C80.585,28.577,82.471,23.69,84.381,18.812z"/>
	<g>
		<path fill="#EB1C23" d="M138.841,18.81c2.83-0.01,5.657,0.029,8.487-0.021c-0.922,0.436-1.579,1.253-1.965,2.181
			c-0.998,2.349-1.853,4.756-2.841,7.109c-0.585,1.355-1.536,2.612-2.87,3.297c-1.062,0.557-2.275,0.763-3.465,0.756
			c-3.647-0.002-7.295-0.002-10.941-0.002c-0.861,1.872-1.355,3.996-2.789,5.54c-1.154,1.208-2.932,1.315-4.503,1.328
			c-6.42,0.031-12.842-0.033-19.262,0.033c1.656-0.849,2.002-2.808,2.699-4.356c4.322,0.004,8.646,0,12.968,0.002
			c0.803-0.027,1.766,0.002,2.341-0.664c0.419-0.557,0.604-1.247,0.874-1.882c-5.242,0.01-10.485-0.029-15.724,0.021
			c2.324-1.237,3.027-3.939,3.92-6.206c0.841-1.971,1.315-4.268,3.04-5.702c1.204-1.029,2.824-1.413,4.38-1.427
			c5.967-0.029,11.939,0.033,17.909-0.031c-0.685,0.479-1.106,1.204-1.403,1.965c-0.993,2.463-1.946,4.939-2.92,7.408
			c2.193-0.01,4.387,0.017,6.579-0.01c1.06,0.045,1.986-0.701,2.351-1.662C136.768,23.937,137.783,21.362,138.841,18.81z
			 M113.984,23.962c-0.407,1.076-0.915,2.123-1.195,3.239c-0.137,0.521,0.37,0.924,0.853,0.919c1.896,0.093,3.799,0.012,5.697,0.038
			c0.678-1.728,1.353-3.455,2.027-5.183c-1.944,0.01-3.887-0.023-5.83,0.012C114.882,22.974,114.189,23.304,113.984,23.962z"/>
	</g>
	<path fill="#EB1C23" d="M48.008,19.611c1.322-0.662,2.832-0.78,4.289-0.799c5.37-0.002,10.74,0.002,16.112-0.002
		c0.917,0.004,1.851,0.002,2.741,0.247c0.533,0.147,1.085,0.486,1.214,1.064c0.204,0.94-0.176,1.882-0.481,2.758
		c-1.027,2.616-2.062,5.228-3.088,7.842c-7.64-0.021-15.281-0.002-22.92-0.029c-0.96,2.1-1.457,4.5-3.09,6.219
		c-1.388,1.479-3.465,2.073-5.441,2.106c-6.87,0.052-13.74-0.038-20.606,0.045c1.685-0.827,2.036-2.824,2.733-4.387
		c4.692-0.014,9.383,0.029,14.075-0.021c2.015-0.029,4.313-0.704,5.289-2.633c0.789-1.716,1.427-3.498,2.154-5.242
		c7.295,0.031,14.591,0.038,21.888,0.06c0.351-0.99,0.861-1.932,1.085-2.963c0.135-0.706-0.701-0.919-1.237-0.896
		c-2.941,0.002-5.884-0.038-8.823,0.019c-1.112-0.035-1.756,0.96-2.093,1.882c-2.92,0.021-5.841-0.023-8.762,0.027
		c1.37-0.415,2.069-1.697,2.616-2.905C46.191,20.999,46.984,20.113,48.008,19.611z"/>
	<path fill="#EB1C23" d="M76.539,19.007c1.33-0.635,3.077,0.156,3.465,1.579c0.496,1.438-0.602,3.11-2.11,3.251
		c-1.299,0.201-2.631-0.77-2.834-2.069C74.835,20.649,75.489,19.447,76.539,19.007z"/>
	<path fill="#EB1C23" d="M132.938,18.993c1.517-0.763,3.486,0.602,3.282,2.291c-0.054,1.739-2.291,2.78-3.666,1.726
		C131.087,22.085,131.322,19.623,132.938,18.993z"/>
	<path fill="#EB1C23" d="M45.973,34.627c1.183-1.173,3.37-0.739,4.044,0.78c0.585-1.218,2.147-1.83,3.382-1.23
		c0.552,0.22,0.917,0.706,1.258,1.168c0.726-1.361,2.656-1.874,3.88-0.87c1.339,0.953,1.297,3.187-0.083,4.086
		c-1.232,0.919-3.077,0.396-3.797-0.917c-0.417,0.593-0.957,1.156-1.697,1.308c-1.162,0.311-2.432-0.315-2.941-1.394
		c-0.606,1.365-2.455,1.907-3.692,1.064C44.938,37.814,44.749,35.665,45.973,34.627z"/>
	<path fill="#EB1C23" d="M88.335,34.347c1.502-1.071,3.941,0.109,3.863,2c0.004-1.882,2.384-3.083,3.911-1.994
		c1.576,0.922,1.519,3.49-0.106,4.332c-1.533,0.981-3.847-0.235-3.785-2.088c0.076,1.922-2.403,3.116-3.92,2.007
		C86.779,37.694,86.804,35.233,88.335,34.347z"/>
</g>
</svg>
